<svg xmlns="http://www.w3.org/2000/svg" width="1200" height="700" viewBox="0 0 1200 700"><rect x="0" y="0" width="1200" height="700" fill="#f7f7fb"/><defs>  <marker id="arrow" viewBox="0 0 10 10" refX="8" refY="5" markerWidth="8" markerHeight="8" orient="auto">    <path d="M 0 0 L 10 5 L 0 10 z" fill="#333"/>  </marker></defs><rect x="60" y="90" width="260" height="80" rx="10" ry="10" fill="#fff" stroke="#333" stroke-width="2"/><text x="190" y="130" font-family="Inter,Arial,Helvetica,sans-serif" font-size="18" text-anchor="middle" font-weight="normal">Admin UI</text><rect x="60" y="200" width="260" height="80" rx="10" ry="10" fill="#fff" stroke="#333" stroke-width="2"/><text x="190" y="240" font-family="Inter,Arial,Helvetica,sans-serif" font-size="18" text-anchor="middle" font-weight="normal">WP-CLI</text><rect x="420" y="60" width="320" height="80" rx="10" ry="10" fill="#fff" stroke="#333" stroke-width="2"/><text x="580" y="100" font-family="Inter,Arial,Helvetica,sans-serif" font-size="18" text-anchor="middle" font-weight="bold">Controller / Orchestrator</text><text x="580" y="125" font-family="Inter,Arial,Helvetica,sans-serif" font-size="14" text-anchor="middle" font-weight="normal">batching • validation • skip rules</text><rect x="420" y="180" width="320" height="70" rx="10" ry="10" fill="#fff" stroke="#333" stroke-width="2"/><text x="580" y="220" font-family="Inter,Arial,Helvetica,sans-serif" font-size="16" text-anchor="middle" font-weight="normal">Scanner</text><rect x="420" y="270" width="320" height="70" rx="10" ry="10" fill="#fff" stroke="#333" stroke-width="2"/><text x="580" y="310" font-family="Inter,Arial,Helvetica,sans-serif" font-size="16" text-anchor="middle" font-weight="normal">Converter</text><rect x="420" y="360" width="320" height="70" rx="10" ry="10" fill="#fff" stroke="#333" stroke-width="2"/><text x="580" y="400" font-family="Inter,Arial,Helvetica,sans-serif" font-size="16" text-anchor="middle" font-weight="normal">URL Map Builder</text><rect x="420" y="450" width="320" height="70" rx="10" ry="10" fill="#fff" stroke="#333" stroke-width="2"/><text x="580" y="490" font-family="Inter,Arial,Helvetica,sans-serif" font-size="16" text-anchor="middle" font-weight="normal">DB Rewriter</text><rect x="420" y="540" width="320" height="70" rx="10" ry="10" fill="#fff" stroke="#333" stroke-width="2"/><text x="580" y="580" font-family="Inter,Arial,Helvetica,sans-serif" font-size="16" text-anchor="middle" font-weight="normal">Metadata + Backup/Commit</text><rect x="420" y="630" width="320" height="50" rx="10" ry="10" fill="#fff" stroke="#333" stroke-width="2"/><text x="580" y="660" font-family="Inter,Arial,Helvetica,sans-serif" font-size="16" text-anchor="middle" font-weight="normal">Report Manager</text><rect x="880" y="230" width="260" height="100" rx="10" ry="10" fill="#fff" stroke="#333" stroke-width="2"/><text x="1010" y="270" font-family="Inter,Arial,Helvetica,sans-serif" font-size="18" text-anchor="middle" font-weight="bold">WordPress DB</text><text x="1010" y="295" font-family="Inter,Arial,Helvetica,sans-serif" font-size="14" text-anchor="middle" font-weight="normal">posts • postmeta • options</text><rect x="880" y="390" width="260" height="100" rx="10" ry="10" fill="#fff" stroke="#333" stroke-width="2"/><text x="1010" y="430" font-family="Inter,Arial,Helvetica,sans-serif" font-size="18" text-anchor="middle" font-weight="bold">Uploads FS</text><text x="1010" y="455" font-family="Inter,Arial,Helvetica,sans-serif" font-size="14" text-anchor="middle" font-weight="normal">wp-content/uploads</text><line x1="320" y1="130" x2="420" y2="100" stroke="#333" stroke-width="2" marker-end="url(#arrow)"/><text x="370.0" y="109.0" font-family="Inter,Arial,Helvetica,sans-serif" font-size="14" text-anchor="middle" font-weight="normal">actions</text><line x1="320" y1="240" x2="420" y2="100" stroke="#333" stroke-width="2" marker-end="url(#arrow)"/><text x="370.0" y="164.0" font-family="Inter,Arial,Helvetica,sans-serif" font-size="14" text-anchor="middle" font-weight="normal">commands</text><line x1="580" y1="140" x2="580" y2="180" stroke="#333" stroke-width="2" marker-end="url(#arrow)"/><line x1="580" y1="250" x2="580" y2="270" stroke="#333" stroke-width="2" marker-end="url(#arrow)"/><line x1="580" y1="340" x2="580" y2="360" stroke="#333" stroke-width="2" marker-end="url(#arrow)"/><line x1="580" y1="430" x2="580" y2="450" stroke="#333" stroke-width="2" marker-end="url(#arrow)"/><line x1="580" y1="520" x2="580" y2="540" stroke="#333" stroke-width="2" marker-end="url(#arrow)"/><line x1="580" y1="610" x2="580" y2="630" stroke="#333" stroke-width="2" marker-end="url(#arrow)"/><line x1="740" y1="490" x2="880" y2="280" stroke="#333" stroke-width="2" marker-end="url(#arrow)"/><text x="810.0" y="379.0" font-family="Inter,Arial,Helvetica,sans-serif" font-size="14" text-anchor="middle" font-weight="normal">rewrite</text><line x1="740" y1="585" x2="880" y2="280" stroke="#333" stroke-width="2" marker-end="url(#arrow)"/><text x="810.0" y="426.5" font-family="Inter,Arial,Helvetica,sans-serif" font-size="14" text-anchor="middle" font-weight="normal">update metadata</text><line x1="740" y1="305" x2="880" y2="440" stroke="#333" stroke-width="2" marker-end="url(#arrow)"/><text x="810.0" y="366.5" font-family="Inter,Arial,Helvetica,sans-serif" font-size="14" text-anchor="middle" font-weight="normal">write WebP</text><line x1="880" y1="440" x2="740" y2="585" stroke="#333" stroke-width="2" marker-end="url(#arrow)"/><text x="810.0" y="506.5" font-family="Inter,Arial,Helvetica,sans-serif" font-size="14" text-anchor="middle" font-weight="normal">move/delete</text></svg>